<?xml version="1.0" encoding="UTF-8"?>

<svg xmlns="http://www.w3.org/2000/svg" viewBox="0 0 400 100" preserveAspectRatio="xMidYMid meet" role="img" aria-label="Urso &amp; Co">
  <title>Urso &amp; Co — primary wordmark (outlined)</title>
  <g fill="#0f1114" aria-label="Urso &amp; Co">
    <path d="M80.86 70.96Q76.12 70.96 72.55000000000001 69.28Q68.98 67.6 67.03 64.06Q65.08 60.519999999999996 65.08 55.06V42.28Q65.08 39.28 65.08 36.22Q65.02 35.08 65.02 33.940000000000005L59.86 33.64V30.160000000000004H79.12V33.64L73.3 34.0Q73.3 35.08 73.3 36.160000000000004Q73.24000000000001 39.22 73.24000000000001 42.22V53.8Q73.24000000000001 58.36 74.38000000000001 61.120000000000005Q75.52000000000001 63.88 77.68 65.14Q79.84 66.4 82.9 66.4Q85.96000000000001 66.4 88.15 65.08Q90.34 63.76 91.48 60.91Q92.62 58.06 92.62 53.44V33.940000000000005L86.62 33.64V30.160000000000004H101.86V33.64L96.52000000000001 33.940000000000005V53.980000000000004Q96.52000000000001 59.74 94.66000000000001 63.519999999999996Q92.80000000000001 67.3 89.29 69.13Q85.78 70.96 80.86 70.96Z"></path>
    <path d="M104.14 70.0V66.82L108.34 66.4Q108.34 66.22 108.4 65.98Q108.4 63.76 108.4 61.42V51.1Q108.4 49.900000000000006 108.37 48.730000000000004Q108.34 47.56 108.34 46.36L103.78 46.06V43.18L113.08 39.88L114.88 40.18L115.53999999999999 48.16L115.96 48.22V48.400000000000006H116.25999999999999Q117.16 45.58 118.44999999999999 43.629999999999995Q119.74 41.68 121.3 40.66Q122.86 39.64 124.78 39.64Q126.7 39.64 127.99000000000001 40.66Q129.28 41.68 129.7 43.24Q129.57999999999998 45.28 128.47 46.66Q127.36 48.04 125.38 48.04Q124.0 48.04 122.95 47.44Q121.9 46.84 121.06 45.82L120.88 45.64Q119.38 46.66 118.24 48.04Q116.86 49.66 115.96 51.58V61.42Q115.96 63.76 116.02 65.98Q116.02 66.16 116.02 66.34L121.48 66.82V70.0Z"></path>
    <path d="M143.02 70.84Q139.9 70.84 137.29000000000002 70.21000000000001Q134.68 69.58 132.64 68.56L132.57999999999998 61.3H136.78L137.85999999999999 66.76Q138.28 66.94 138.76 67.06Q140.68 67.6 143.02 67.6Q145.12 67.6 146.47 67.03Q147.82 66.46 148.48 65.47Q149.14 64.48 149.14 63.22Q149.14 61.480000000000004 147.85 60.43000000000001Q146.56 59.38 143.56 58.42L141.4 57.76Q138.76 56.86 136.78 55.69Q134.8 54.52 133.75 52.81Q132.7 51.1 132.7 48.7Q132.7 46.06 134.14 43.96Q135.57999999999998 41.86 138.31 40.69Q141.04 39.519999999999996 144.88 39.519999999999996Q147.57999999999998 39.519999999999996 149.98 40.12Q152.38 40.72 154.35999999999999 41.74L154.12 48.46H149.92L148.96 43.36Q148.6 43.24 148.3 43.120000000000005Q146.74 42.760000000000005 144.88 42.760000000000005Q142.18 42.760000000000005 140.82999999999998 43.84Q139.48 44.92 139.48 46.66Q139.48 48.28 140.68 49.27Q141.88 50.260000000000005 145.0 51.28L146.8 51.82Q149.85999999999999 52.78 151.93 54.07Q154.0 55.36 155.05 57.1Q156.1 58.84 156.1 61.24Q156.1 64.06 154.54 66.22Q152.98 68.38 150.07 69.61Q147.16 70.84 143.02 70.84Z"></path>
    <path d="M176.14 70.84Q172.0 70.84 168.51999999999998 69.03999999999999Q165.04 67.24 162.97 63.73Q160.9 60.22 160.9 55.24Q160.9 50.2 163.0 46.69Q165.1 43.18 168.57999999999998 41.349999999999994Q172.06 39.519999999999996 176.14 39.519999999999996Q180.16 39.519999999999996 183.64 41.32Q187.12 43.120000000000005 189.25 46.6Q191.38 50.08 191.38 55.06Q191.38 60.04 189.28 63.58Q187.18 67.12 183.73000000000002 68.98Q180.28 70.84 176.14 70.84ZM176.14 67.42Q178.42 67.42 180.01 66.13Q181.6 64.84 182.47 62.14Q183.34 59.44 183.34 55.24Q183.34 51.04 182.47 48.31Q181.6 45.58 180.01 44.26Q178.42 42.94 176.14 42.94Q173.8 42.94 172.21 44.23Q170.62 45.519999999999996 169.78 48.22Q168.94 50.92 168.94 55.120000000000005Q168.94 59.38 169.78 62.08Q170.62 64.78 172.21 66.1Q173.8 67.42 176.14 67.42Z"></path>
    <path d="M228.60000000000002 70.9Q223.62 70.9 219.99 69.37Q216.36 67.84 214.41000000000003 64.99000000000001Q212.46 62.14 212.46 58.18Q212.46 55.18 213.69 52.629999999999995Q214.92000000000002 50.08 217.44 48.22Q219.9 46.42 223.5 45.7Q222.0 44.32 221.28 42.82Q220.5 41.260000000000005 220.5 39.519999999999996Q220.5 36.7 222.03 34.36Q223.56 32.02 226.38 30.610000000000003Q229.20000000000002 29.200000000000003 233.16000000000003 29.200000000000003Q235.98000000000002 29.200000000000003 237.96 29.92Q239.94 30.64 241.2 31.87Q242.46 33.1 242.88 34.78Q242.64000000000001 35.86 241.89000000000001 36.61Q241.14000000000001 37.36 239.82 37.36Q238.56 37.36 237.69 36.64Q236.82000000000002 35.92 236.22 34.300000000000004L235.32000000000002 31.72Q234.96 31.72 234.60000000000002 31.72Q231.78 31.72 229.82999999999998 32.8Q227.88 33.88 226.86 35.83Q225.84 37.78 225.84 40.42Q225.84 41.68 226.08 42.82Q226.26000000000002 43.6 226.68 44.5Q226.68 44.5 226.74 44.44Q227.34 44.44 227.88 44.44Q230.94 44.44 232.35000000000002 45.25Q233.76000000000002 46.06 233.76000000000002 47.44Q233.76000000000002 48.58 232.92000000000002 49.24Q232.08 49.900000000000006 230.58 49.900000000000006Q228.72 49.900000000000006 226.98000000000002 49.06Q225.48000000000002 48.400000000000006 224.10000000000002 47.260000000000005Q222.54000000000002 48.16 221.52 49.42Q220.32000000000002 50.92 219.81 52.66Q219.3 54.4 219.3 56.2Q219.3 59.26 220.71 61.39Q222.12 63.52 224.64000000000001 64.66Q227.16000000000003 65.8 230.4 65.8Q233.34 65.8 235.53 64.99000000000001Q237.72 64.18 238.95 62.68000000000001Q240.18 61.18 240.18 59.08Q240.18 57.04 238.92000000000002 55.75Q237.66000000000003 54.46 234.78 54.04L235.32000000000002 50.74Q239.10000000000002 50.44 241.77 49.0Q244.44 47.56 246.27 45.04Q248.10000000000002 42.519999999999996 249.36 39.1L254.4 41.38Q251.94 46.6 247.86 49.3Q243.9 52.0 238.02 52.480000000000004Q239.82 52.900000000000006 241.08 53.74Q242.52 54.7 243.24 56.17Q243.96 57.64 243.96 59.5Q243.96 61.96 242.91000000000003 64.03Q241.86 66.1 239.88 67.63Q237.9 69.16 235.05 70.03Q232.20000000000002 70.9 228.60000000000002 70.9Z"></path>
    <path d="M290.88 70.96Q286.26 70.96 282.36 69.61Q278.46 68.26 275.54999999999995 65.65Q272.64 63.04 271.02 59.17Q269.4 55.3 269.4 50.260000000000005Q269.4 45.16 271.08 41.26Q272.76 37.36 275.76 34.629999999999995Q278.76 31.9 282.72 30.55Q286.68 29.200000000000003 291.12 29.200000000000003Q294.84 29.200000000000003 297.96 29.950000000000003Q301.08 30.700000000000003 303.41999999999996 32.02L303.71999999999997 41.08H299.46L297.84 34.0Q297.48 33.88 297.12 33.7Q294.71999999999997 32.86 292.02 32.86Q288.18 32.86 285.0 34.75Q281.82 36.64 279.96 40.45Q278.09999999999997 44.260000000000005 278.09999999999997 50.02Q278.09999999999997 55.78 279.87 59.620000000000005Q281.64 63.46 284.73 65.38Q287.82 67.3 291.78 67.3Q294.78 67.3 297.42 66.4Q297.9 66.28 298.44 66.04L300.0 58.96H304.26L303.96 68.14Q301.68 69.34 298.40999999999997 70.15Q295.14 70.96 290.88 70.96Z"></path>
    <path d="M324.23999999999995 70.84Q320.09999999999997 70.84 316.62 69.03999999999999Q313.14 67.24 311.06999999999994 63.73Q308.99999999999994 60.22 308.99999999999994 55.24Q308.99999999999994 50.2 311.09999999999997 46.69Q313.2 43.18 316.67999999999995 41.349999999999994Q320.15999999999997 39.519999999999996 324.23999999999995 39.519999999999996Q328.26 39.519999999999996 331.74 41.32Q335.21999999999997 43.120000000000005 337.34999999999997 46.6Q339.47999999999996 50.08 339.47999999999996 55.06Q339.47999999999996 60.04 337.38 63.58Q335.28 67.12 331.8299999999999 68.98Q328.37999999999994 70.84 324.23999999999995 70.84ZM324.23999999999995 67.42Q326.52 67.42 328.11 66.13Q329.7 64.84 330.56999999999994 62.14Q331.43999999999994 59.44 331.43999999999994 55.24Q331.43999999999994 51.04 330.56999999999994 48.31Q329.7 45.58 328.11 44.26Q326.52 42.94 324.23999999999995 42.94Q321.9 42.94 320.30999999999995 44.23Q318.71999999999997 45.519999999999996 317.88 48.22Q317.03999999999996 50.92 317.03999999999996 55.120000000000005Q317.03999999999996 59.38 317.88 62.08Q318.71999999999997 64.78 320.30999999999995 66.1Q321.9 67.42 324.23999999999995 67.42Z"></path>
  </g>
</svg>