<?xml version="1.0" encoding="UTF-8"?>

<svg xmlns="http://www.w3.org/2000/svg" viewBox="0 0 100 100" preserveAspectRatio="xMidYMid meet" role="img" aria-label="Urso &amp; Co — monogram">
  <title>Urso &amp; Co — U monogram (outlined)</title>
  <g fill="#0f1114" aria-label="U monogram">
    <path d="M50.120000000000005 75.28Q43.8 75.28 39.04 73.03999999999999Q34.28 70.8 31.68 66.08Q29.08 61.36 29.08 54.08V37.04Q29.08 33.04 29.08 28.96Q29.0 27.439999999999998 29.0 25.92L22.119999999999997 25.519999999999996V20.879999999999995H47.8V25.519999999999996L40.04 26.0Q40.04 27.439999999999998 40.04 28.880000000000003Q39.96 32.96 39.96 36.96V52.4Q39.96 58.480000000000004 41.480000000000004 62.160000000000004Q43.0 65.84 45.879999999999995 67.52000000000001Q48.76 69.2 52.84 69.2Q56.92 69.2 59.84 67.44Q62.76 65.68 64.28 61.88Q65.8 58.08 65.8 51.92V25.92L57.8 25.519999999999996V20.879999999999995H78.12V25.519999999999996L71.0 25.92V52.64Q71.0 60.32 68.52 65.36Q66.03999999999999 70.4 61.36 72.84Q56.68 75.28 50.120000000000005 75.28Z"></path>
  </g>
</svg>