<?xml version="1.0" encoding="UTF-8"?>

<svg xmlns="http://www.w3.org/2000/svg" viewBox="0 0 240 200" preserveAspectRatio="xMidYMid meet" role="img" aria-label="Urso &amp; Co">
  <title>Urso &amp; Co — stacked wordmark (outlined)</title>
  <g fill="#0f1114" aria-label="Urso &amp; Co">
    <path d="M66.612 87.152Q60.92399999999999 87.152 56.63999999999999 85.136Q52.355999999999995 83.12 50.01599999999999 78.872Q47.675999999999995 74.624 47.675999999999995 68.072V52.736000000000004Q47.675999999999995 49.136 47.675999999999995 45.464000000000006Q47.60399999999999 44.096000000000004 47.60399999999999 42.728L41.41199999999999 42.368V38.192H64.524V42.368L57.53999999999999 42.800000000000004Q57.53999999999999 44.096000000000004 57.53999999999999 45.392Q57.46799999999999 49.064 57.46799999999999 52.664V66.56Q57.46799999999999 72.032 58.83599999999999 75.344Q60.20399999999999 78.656 62.79599999999999 80.168Q65.38799999999999 81.68 69.06 81.68Q72.732 81.68 75.36 80.096Q77.988 78.512 79.356 75.092Q80.72399999999999 71.672 80.72399999999999 66.128V42.728L73.524 42.368V38.192H91.81199999999998V42.368L85.404 42.728V66.776Q85.404 73.688 83.172 78.224Q80.94 82.76 76.728 84.956Q72.51599999999999 87.152 66.612 87.152Z"></path>
    <path d="M94.188 86.0V82.184L99.228 81.68Q99.228 81.464 99.3 81.176Q99.3 78.512 99.3 75.70400000000001V63.32Q99.3 61.88 99.264 60.476Q99.228 59.072 99.228 57.632000000000005L93.756 57.272000000000006V53.816L104.916 49.856L107.076 50.216L107.868 59.792L108.372 59.864000000000004V60.08H108.732Q109.812 56.696 111.36 54.356Q112.908 52.016000000000005 114.78 50.792Q116.652 49.568000000000005 118.95599999999999 49.568000000000005Q121.25999999999999 49.568000000000005 122.80799999999999 50.792Q124.356 52.016000000000005 124.85999999999999 53.888000000000005Q124.716 56.336 123.38399999999999 57.992000000000004Q122.05199999999999 59.648 119.67599999999999 59.648Q118.02 59.648 116.75999999999999 58.928Q115.5 58.208 114.49199999999999 56.984L114.276 56.768Q112.476 57.992000000000004 111.108 59.648Q109.452 61.592 108.372 63.896V75.70400000000001Q108.372 78.512 108.44399999999999 81.176Q108.44399999999999 81.392 108.44399999999999 81.608L114.996 82.184V86.0Z"></path>
    <path d="M140.48399999999998 87.008Q136.74 87.008 133.608 86.252Q130.476 85.496 128.028 84.272L127.956 75.56H132.996L134.292 82.112Q134.796 82.328 135.37199999999999 82.472Q137.676 83.12 140.48399999999998 83.12Q143.004 83.12 144.624 82.436Q146.244 81.752 147.036 80.564Q147.828 79.376 147.828 77.864Q147.828 75.776 146.28 74.51599999999999Q144.732 73.256 141.132 72.104L138.54 71.312Q135.37199999999999 70.232 132.99599999999998 68.828Q130.62 67.424 129.36 65.372Q128.1 63.32 128.1 60.44Q128.1 57.272000000000006 129.82799999999997 54.752Q131.55599999999998 52.232 134.832 50.828Q138.108 49.424 142.716 49.424Q145.956 49.424 148.836 50.144000000000005Q151.716 50.864000000000004 154.09199999999998 52.088L153.804 60.152H148.764L147.612 54.032000000000004Q147.18 53.888000000000005 146.82 53.744Q144.948 53.312000000000005 142.716 53.312000000000005Q139.476 53.312000000000005 137.856 54.608000000000004Q136.236 55.904 136.236 57.992000000000004Q136.236 59.93600000000001 137.676 61.124Q139.11599999999999 62.312 142.85999999999999 63.536L145.01999999999998 64.184Q148.692 65.336 151.176 66.884Q153.66 68.432 154.92000000000002 70.52000000000001Q156.18 72.608 156.18 75.488Q156.18 78.872 154.308 81.464Q152.43599999999998 84.056 148.944 85.532Q145.452 87.008 140.48399999999998 87.008Z"></path>
    <path d="M179.868 87.008Q174.89999999999998 87.008 170.724 84.848Q166.54799999999997 82.688 164.06399999999996 78.476Q161.57999999999998 74.264 161.57999999999998 68.288Q161.57999999999998 62.24 164.09999999999997 58.028000000000006Q166.61999999999998 53.816 170.796 51.620000000000005Q174.97199999999998 49.424 179.868 49.424Q184.69199999999998 49.424 188.868 51.584Q193.04399999999998 53.744 195.59999999999997 57.92Q198.15599999999998 62.096000000000004 198.15599999999998 68.072Q198.15599999999998 74.048 195.63599999999997 78.29599999999999Q193.11599999999999 82.544 188.976 84.776Q184.83599999999998 87.008 179.868 87.008ZM179.868 82.904Q182.60399999999998 82.904 184.512 81.356Q186.42 79.808 187.464 76.56800000000001Q188.50799999999998 73.328 188.50799999999998 68.288Q188.50799999999998 63.248000000000005 187.464 59.972Q186.42 56.696 184.512 55.112Q182.60399999999998 53.528000000000006 179.868 53.528000000000006Q177.05999999999997 53.528000000000006 175.152 55.07600000000001Q173.24399999999997 56.624 172.236 59.864000000000004Q171.22799999999998 63.104 171.22799999999998 68.144Q171.22799999999998 73.256 172.236 76.49600000000001Q173.24399999999997 79.736 175.152 81.32Q177.05999999999997 82.904 179.868 82.904Z"></path>
    <path d="M77.583 156.81Q73.101 156.81 69.834 155.433Q66.56700000000001 154.056 64.81200000000001 151.49099999999999Q63.057 148.926 63.057 145.362Q63.057 142.662 64.164 140.36700000000002Q65.271 138.072 67.539 136.398Q69.753 134.778 72.993 134.13Q71.643 132.888 70.995 131.538Q70.293 130.13400000000001 70.293 128.568Q70.293 126.03 71.67 123.924Q73.047 121.818 75.58500000000001 120.549Q78.123 119.28 81.687 119.28Q84.225 119.28 86.007 119.928Q87.789 120.576 88.923 121.68299999999999Q90.057 122.78999999999999 90.435 124.30199999999999Q90.219 125.274 89.544 125.949Q88.869 126.624 87.681 126.624Q86.547 126.624 85.764 125.976Q84.981 125.328 84.441 123.87L83.631 121.548Q83.307 121.548 82.983 121.548Q80.445 121.548 78.69 122.52Q76.935 123.49199999999999 76.017 125.24699999999999Q75.099 127.002 75.099 129.378Q75.099 130.512 75.315 131.538Q75.477 132.24 75.855 133.05Q75.855 133.05 75.909 132.996Q76.449 132.996 76.935 132.996Q79.689 132.996 80.958 133.72500000000002Q82.227 134.454 82.227 135.696Q82.227 136.722 81.471 137.316Q80.715 137.91 79.36500000000001 137.91Q77.691 137.91 76.125 137.154Q74.775 136.56 73.533 135.534Q72.129 136.344 71.211 137.478Q70.131 138.828 69.672 140.394Q69.213 141.96 69.213 143.58Q69.213 146.334 70.482 148.251Q71.751 150.168 74.019 151.19400000000002Q76.287 152.22 79.203 152.22Q81.849 152.22 83.82 151.49099999999999Q85.791 150.762 86.898 149.412Q88.005 148.062 88.005 146.172Q88.005 144.336 86.871 143.175Q85.737 142.014 83.145 141.636L83.631 138.666Q87.033 138.39600000000002 89.436 137.10000000000002Q91.839 135.804 93.486 133.536Q95.13300000000001 131.268 96.267 128.19L100.803 130.242Q98.589 134.94 94.917 137.37Q91.35300000000001 139.8 86.061 140.232Q87.681 140.61 88.815 141.36599999999999Q90.111 142.23 90.759 143.553Q91.407 144.876 91.407 146.55Q91.407 148.764 90.46199999999999 150.627Q89.517 152.49 87.735 153.86700000000002Q85.953 155.244 83.388 156.027Q80.82300000000001 156.81 77.583 156.81Z"></path>
    <path d="M133.635 156.864Q129.477 156.864 125.96700000000001 155.649Q122.45700000000001 154.434 119.83800000000001 152.08499999999998Q117.21900000000001 149.736 115.76100000000001 146.253Q114.30300000000001 142.77 114.30300000000001 138.234Q114.30300000000001 133.644 115.81500000000001 130.13400000000001Q117.32700000000001 126.624 120.02700000000002 124.167Q122.727 121.71000000000001 126.29100000000001 120.495Q129.85500000000002 119.28 133.851 119.28Q137.199 119.28 140.007 119.955Q142.815 120.63 144.921 121.818L145.191 129.972H141.357L139.899 123.6Q139.57500000000002 123.49199999999999 139.251 123.33Q137.091 122.574 134.661 122.574Q131.205 122.574 128.34300000000002 124.275Q125.48100000000001 125.976 123.80700000000002 129.405Q122.13300000000001 132.834 122.13300000000001 138.018Q122.13300000000001 143.202 123.726 146.65800000000002Q125.319 150.114 128.1 151.84199999999998Q130.881 153.57 134.445 153.57Q137.145 153.57 139.52100000000002 152.76Q139.953 152.652 140.43900000000002 152.436L141.84300000000002 146.064H145.67700000000002L145.407 154.326Q143.35500000000002 155.406 140.412 156.135Q137.469 156.864 133.635 156.864Z"></path>
    <path d="M163.65900000000002 156.756Q159.93300000000002 156.756 156.80100000000002 155.136Q153.669 153.516 151.806 150.357Q149.943 147.198 149.943 142.716Q149.943 138.18 151.83300000000003 135.02100000000002Q153.723 131.862 156.85500000000002 130.215Q159.98700000000002 128.568 163.65900000000002 128.568Q167.27700000000002 128.568 170.40900000000002 130.188Q173.54100000000003 131.808 175.45800000000003 134.94Q177.375 138.072 177.375 142.554Q177.375 147.036 175.485 150.22199999999998Q173.59500000000003 153.408 170.49 155.082Q167.38500000000002 156.756 163.65900000000002 156.756ZM163.65900000000002 153.678Q165.711 153.678 167.142 152.517Q168.573 151.356 169.356 148.926Q170.139 146.496 170.139 142.716Q170.139 138.936 169.356 136.47899999999998Q168.573 134.022 167.142 132.834Q165.711 131.64600000000002 163.65900000000002 131.64600000000002Q161.55300000000003 131.64600000000002 160.122 132.80700000000002Q158.691 133.968 157.935 136.398Q157.179 138.828 157.179 142.608Q157.179 146.442 157.935 148.872Q158.691 151.302 160.122 152.49Q161.55300000000003 153.678 163.65900000000002 153.678Z"></path>
  </g>
</svg>