<?xml version="1.0" encoding="UTF-8"?>

<svg xmlns="http://www.w3.org/2000/svg" viewBox="0 0 460 170" preserveAspectRatio="xMidYMid meet" role="img" aria-label="Urso &amp; Co — AI Operations Studio">
  <title>Urso &amp; Co — full lockup (outlined)</title>
  <g fill="#0f1114" aria-label="Urso &amp; Co">
    <path d="M103.98399999999998 79.024Q98.92799999999998 79.024 95.11999999999998 77.232Q91.31199999999998 75.44 89.23199999999999 71.664Q87.15199999999999 67.888 87.15199999999999 62.064V48.432Q87.15199999999999 45.232 87.15199999999999 41.967999999999996Q87.088 40.752 87.088 39.536L81.58399999999999 39.216V35.504H102.12799999999999V39.216L95.91999999999999 39.6Q95.91999999999999 40.752 95.91999999999999 41.903999999999996Q95.856 45.168 95.856 48.367999999999995V60.72Q95.856 65.584 97.07199999999999 68.52799999999999Q98.28799999999998 71.472 100.59199999999998 72.816Q102.89599999999999 74.16 106.16 74.16Q109.42399999999999 74.16 111.75999999999999 72.752Q114.09599999999999 71.344 115.31199999999998 68.304Q116.52799999999999 65.264 116.52799999999999 60.336V39.536L110.12799999999999 39.216V35.504H126.38399999999999V39.216L120.68799999999999 39.536V60.912Q120.68799999999999 67.056 118.70399999999998 71.088Q116.71999999999998 75.12 112.97599999999998 77.072Q109.23199999999999 79.024 103.98399999999998 79.024Z"></path>
    <path d="M128.81599999999997 78.0V74.608L133.296 74.16Q133.296 73.968 133.35999999999999 73.712Q133.35999999999999 71.344 133.35999999999999 68.848V57.84Q133.35999999999999 56.56 133.32799999999997 55.312Q133.296 54.064 133.296 52.784L128.432 52.464V49.391999999999996L138.35199999999998 45.872L140.272 46.192L140.976 54.704L141.42399999999998 54.768V54.96H141.74399999999997Q142.70399999999998 51.952 144.07999999999998 49.872Q145.456 47.792 147.12 46.704Q148.784 45.616 150.832 45.616Q152.88 45.616 154.25599999999997 46.704Q155.63199999999998 47.792 156.07999999999998 49.456Q155.952 51.632 154.76799999999997 53.104Q153.58399999999997 54.576 151.47199999999998 54.576Q150.0 54.576 148.88 53.936Q147.76 53.296 146.86399999999998 52.208L146.672 52.016Q145.07199999999997 53.104 143.856 54.576Q142.384 56.304 141.42399999999998 58.352000000000004V68.848Q141.42399999999998 71.344 141.488 73.712Q141.488 73.904 141.488 74.096L147.31199999999998 74.608V78.0Z"></path>
    <path d="M170.28799999999998 78.896Q166.95999999999998 78.896 164.176 78.224Q161.392 77.552 159.21599999999998 76.464L159.152 68.72H163.63199999999998L164.784 74.544Q165.23199999999997 74.736 165.74399999999997 74.864Q167.79199999999997 75.44 170.28799999999998 75.44Q172.528 75.44 173.968 74.832Q175.408 74.224 176.11199999999997 73.168Q176.81599999999997 72.112 176.81599999999997 70.768Q176.81599999999997 68.912 175.44 67.792Q174.064 66.672 170.86399999999998 65.648L168.55999999999997 64.944Q165.74399999999997 63.984 163.63199999999998 62.736000000000004Q161.51999999999998 61.488 160.39999999999998 59.664Q159.27999999999997 57.84 159.27999999999997 55.28Q159.27999999999997 52.464 160.81599999999997 50.224Q162.35199999999998 47.983999999999995 165.26399999999998 46.736Q168.176 45.488 172.272 45.488Q175.152 45.488 177.712 46.128Q180.272 46.768 182.384 47.855999999999995L182.128 55.024H177.648L176.624 49.584Q176.23999999999998 49.456 175.92 49.328Q174.25599999999997 48.944 172.272 48.944Q169.392 48.944 167.952 50.096000000000004Q166.51199999999997 51.248000000000005 166.51199999999997 53.104Q166.51199999999997 54.832 167.79199999999997 55.888000000000005Q169.07199999999997 56.944 172.39999999999998 58.032L174.32 58.608000000000004Q177.58399999999997 59.632 179.79199999999997 61.007999999999996Q182.0 62.384 183.12 64.24000000000001Q184.23999999999998 66.096 184.23999999999998 68.656Q184.23999999999998 71.664 182.57599999999996 73.968Q180.91199999999998 76.272 177.808 77.584Q174.70399999999998 78.896 170.28799999999998 78.896Z"></path>
    <path d="M205.61599999999999 78.896Q201.2 78.896 197.488 76.976Q193.77599999999998 75.056 191.56799999999998 71.312Q189.35999999999999 67.568 189.35999999999999 62.256Q189.35999999999999 56.879999999999995 191.6 53.135999999999996Q193.84 49.391999999999996 197.552 47.44Q201.26399999999998 45.488 205.61599999999999 45.488Q209.904 45.488 213.61599999999999 47.408Q217.328 49.328 219.6 53.04Q221.87199999999999 56.751999999999995 221.87199999999999 62.064Q221.87199999999999 67.376 219.632 71.152Q217.392 74.928 213.712 76.912Q210.03199999999998 78.896 205.61599999999999 78.896ZM205.61599999999999 75.248Q208.048 75.248 209.744 73.872Q211.44 72.496 212.368 69.616Q213.296 66.736 213.296 62.256Q213.296 57.775999999999996 212.368 54.864Q211.44 51.952 209.744 50.544Q208.048 49.135999999999996 205.61599999999999 49.135999999999996Q203.12 49.135999999999996 201.42399999999998 50.512Q199.72799999999998 51.888 198.832 54.768Q197.93599999999998 57.647999999999996 197.93599999999998 62.128Q197.93599999999998 66.672 198.832 69.55199999999999Q199.72799999999998 72.432 201.42399999999998 73.84Q203.12 75.248 205.61599999999999 75.248Z"></path>
    <path fill="#5b1e24" d="M259.44 78.96Q254.128 78.96 250.25599999999997 77.328Q246.384 75.696 244.30399999999997 72.656Q242.224 69.616 242.224 65.392Q242.224 62.192 243.536 59.471999999999994Q244.84799999999998 56.751999999999995 247.536 54.768Q250.16 52.848 254.0 52.08Q252.4 50.608000000000004 251.632 49.007999999999996Q250.79999999999998 47.343999999999994 250.79999999999998 45.488Q250.79999999999998 42.48 252.432 39.983999999999995Q254.064 37.488 257.072 35.983999999999995Q260.08 34.48 264.304 34.48Q267.312 34.48 269.424 35.248Q271.536 36.016 272.88 37.328Q274.224 38.64 274.672 40.432Q274.416 41.583999999999996 273.616 42.384Q272.816 43.184 271.408 43.184Q270.06399999999996 43.184 269.13599999999997 42.416Q268.20799999999997 41.647999999999996 267.568 39.92L266.608 37.168Q266.224 37.168 265.84 37.168Q262.832 37.168 260.75199999999995 38.32Q258.67199999999997 39.472 257.58399999999995 41.552Q256.496 43.632 256.496 46.448Q256.496 47.792 256.752 49.007999999999996Q256.944 49.84 257.392 50.8Q257.392 50.8 257.456 50.736000000000004Q258.096 50.736000000000004 258.67199999999997 50.736000000000004Q261.936 50.736000000000004 263.44 51.6Q264.944 52.464 264.944 53.936Q264.944 55.152 264.048 55.856Q263.152 56.56 261.552 56.56Q259.568 56.56 257.712 55.664Q256.11199999999997 54.96 254.64 53.744Q252.976 54.704 251.888 56.048Q250.608 57.647999999999996 250.064 59.504Q249.51999999999998 61.36 249.51999999999998 63.28Q249.51999999999998 66.544 251.024 68.816Q252.528 71.088 255.216 72.304Q257.904 73.52 261.36 73.52Q264.496 73.52 266.832 72.656Q269.168 71.792 270.48 70.19200000000001Q271.792 68.592 271.792 66.352Q271.792 64.176 270.448 62.8Q269.104 61.424 266.032 60.976L266.608 57.456Q270.64 57.135999999999996 273.488 55.599999999999994Q276.336 54.064 278.288 51.376000000000005Q280.24 48.688 281.584 45.04L286.96 47.471999999999994Q284.336 53.04 279.984 55.92Q275.76 58.8 269.488 59.312Q271.408 59.76 272.752 60.656Q274.288 61.68 275.05600000000004 63.248000000000005Q275.824 64.816 275.824 66.8Q275.824 69.424 274.704 71.632Q273.584 73.84 271.472 75.47200000000001Q269.36 77.104 266.32 78.032Q263.28 78.96 259.44 78.96Z"></path>
    <path d="M325.872 79.024Q320.944 79.024 316.784 77.584Q312.624 76.144 309.52 73.36Q306.416 70.576 304.688 66.448Q302.96 62.32 302.96 56.944Q302.96 51.504 304.75199999999995 47.343999999999994Q306.544 43.184 309.744 40.272Q312.944 37.36 317.168 35.92Q321.392 34.48 326.128 34.48Q330.096 34.48 333.424 35.28Q336.752 36.08 339.248 37.488L339.568 47.152H335.024L333.296 39.6Q332.91200000000003 39.472 332.528 39.28Q329.968 38.384 327.088 38.384Q322.992 38.384 319.6 40.4Q316.208 42.416 314.22400000000005 46.48Q312.24 50.544 312.24 56.688Q312.24 62.832 314.12800000000004 66.928Q316.016 71.024 319.312 73.072Q322.608 75.12 326.832 75.12Q330.032 75.12 332.848 74.16Q333.36 74.032 333.93600000000004 73.776L335.6 66.224H340.144L339.824 76.016Q337.392 77.296 333.904 78.16Q330.416 79.024 325.872 79.024Z"></path>
    <path d="M361.456 78.896Q357.04 78.896 353.32800000000003 76.976Q349.61600000000004 75.056 347.408 71.312Q345.20000000000005 67.568 345.20000000000005 62.256Q345.20000000000005 56.879999999999995 347.44000000000005 53.135999999999996Q349.68 49.391999999999996 353.39200000000005 47.44Q357.10400000000004 45.488 361.456 45.488Q365.744 45.488 369.456 47.408Q373.168 49.328 375.44000000000005 53.04Q377.71200000000005 56.751999999999995 377.71200000000005 62.064Q377.71200000000005 67.376 375.47200000000004 71.152Q373.232 74.928 369.552 76.912Q365.872 78.896 361.456 78.896ZM361.456 75.248Q363.88800000000003 75.248 365.58400000000006 73.872Q367.28000000000003 72.496 368.208 69.616Q369.136 66.736 369.136 62.256Q369.136 57.775999999999996 368.208 54.864Q367.28000000000003 51.952 365.58400000000006 50.544Q363.88800000000003 49.135999999999996 361.456 49.135999999999996Q358.96000000000004 49.135999999999996 357.264 50.512Q355.56800000000004 51.888 354.672 54.768Q353.776 57.647999999999996 353.776 62.128Q353.776 66.672 354.672 69.55199999999999Q355.56800000000004 72.432 357.264 73.84Q358.96000000000004 75.248 361.456 75.248Z"></path>
  </g>
  <line x1="165" y1="110" x2="295" y2="110" stroke="#c4bdb4" stroke-width="1"></line>
  <g fill="#0f1114" aria-label="AI Operations Studio">
    <path d="M122.81750000000002 138.0H121.04750000000003L120.13250000000004 135.165H116.21750000000003L115.28750000000004 138.0H113.57750000000003L117.14750000000004 127.53H119.26250000000003ZM119.71250000000003 133.71 118.67750000000004 130.605 118.19750000000003 129.09H118.12250000000003L117.64250000000003 130.605L116.60750000000003 133.71Z"></path>
    <path d="M131.81750000000002 138.0H127.28750000000004V136.62H128.69750000000005V128.91H127.28750000000004V127.53H131.81750000000002V128.91H130.39250000000004V136.62H131.81750000000002Z"></path>
    <path d="M148.12250000000003 138.18Q146.75750000000005 138.18 145.74500000000006 137.5575Q144.73250000000004 136.935 144.17750000000004 135.72750000000002Q143.62250000000003 134.52 143.62250000000003 132.765Q143.62250000000003 130.995 144.17750000000004 129.79500000000002Q144.73250000000004 128.595 145.74500000000006 127.9725Q146.75750000000005 127.35 148.12250000000003 127.35Q149.50250000000005 127.35 150.51500000000004 127.9725Q151.52750000000003 128.595 152.08250000000004 129.79500000000002Q152.63750000000005 130.995 152.63750000000005 132.765Q152.63750000000005 134.52 152.08250000000004 135.72750000000002Q151.52750000000003 136.935 150.51500000000004 137.5575Q149.50250000000005 138.18 148.12250000000003 138.18ZM148.12250000000003 136.665Q148.94750000000005 136.665 149.54750000000004 136.29Q150.14750000000004 135.915 150.49250000000004 135.225Q150.83750000000003 134.535 150.83750000000003 133.59V131.94Q150.83750000000003 130.98 150.49250000000004 130.29Q150.14750000000004 129.6 149.54750000000004 129.23250000000002Q148.94750000000005 128.865 148.12250000000003 128.865Q147.32750000000004 128.865 146.71250000000003 129.23250000000002Q146.09750000000005 129.6 145.76000000000005 130.29Q145.42250000000004 130.98 145.42250000000004 131.94V133.59Q145.42250000000004 134.535 145.76000000000005 135.225Q146.09750000000005 135.915 146.71250000000003 136.29Q147.32750000000004 136.665 148.12250000000003 136.665Z"></path>
    <path d="M159.74750000000006 138.0H158.05250000000004V127.53H162.55250000000004Q163.51250000000005 127.53 164.19500000000005 127.92Q164.87750000000005 128.31 165.23750000000007 129.015Q165.59750000000005 129.72 165.59750000000005 130.68Q165.59750000000005 131.625 165.23750000000007 132.32999999999998Q164.87750000000005 133.035 164.19500000000005 133.4325Q163.51250000000005 133.83 162.55250000000004 133.83H159.74750000000006ZM159.74750000000006 129.015V132.345H162.44750000000005Q162.86750000000004 132.345 163.17500000000004 132.195Q163.48250000000004 132.045 163.64750000000004 131.7525Q163.81250000000006 131.46 163.81250000000006 131.04V130.32Q163.81250000000006 129.885 163.64750000000004 129.6Q163.48250000000004 129.315 163.17500000000004 129.165Q162.86750000000004 129.015 162.44750000000005 129.015Z"></path>
    <path d="M177.46250000000003 138.0H170.75750000000002V127.53H177.46250000000003V129.03H172.45250000000004V131.955H176.99750000000003V133.455H172.45250000000004V136.5H177.46250000000003Z"></path>
    <path d="M184.64750000000004 133.785V138.0H182.95250000000001V127.53H187.46750000000003Q188.41250000000002 127.53 189.08000000000004 127.905Q189.74750000000003 128.28 190.12250000000003 128.97750000000002Q190.49750000000003 129.675 190.49750000000003 130.665Q190.49750000000003 131.76 189.98000000000002 132.5325Q189.46250000000003 133.305 188.47250000000003 133.605L190.72250000000003 138.0H188.8325L186.74750000000003 133.785ZM184.64750000000004 132.345H187.34750000000003Q187.7675 132.345 188.07500000000002 132.195Q188.38250000000002 132.045 188.5475 131.7525Q188.71250000000003 131.46 188.71250000000003 131.04V130.32Q188.71250000000003 129.885 188.5475 129.6Q188.38250000000002 129.315 188.07500000000002 129.165Q187.7675 129.015 187.34750000000003 129.015H184.64750000000004Z"></path>
    <path d="M204.35750000000002 138.0H202.58750000000003L201.6725 135.165H197.75750000000002L196.82750000000001 138.0H195.11750000000004L198.68750000000003 127.53H200.8025ZM201.25250000000003 133.71 200.21750000000003 130.605 199.7375 129.09H199.66250000000002L199.18250000000003 130.605L198.14750000000004 133.71Z"></path>
    <path d="M215.3075 129.03H212.18750000000003V138.0H210.4925V129.03H207.37250000000003V127.53H215.3075Z"></path>
    <path d="M224.24750000000003 138.0H219.71750000000003V136.62H221.12750000000003V128.91H219.71750000000003V127.53H224.24750000000003V128.91H222.82250000000002V136.62H224.24750000000003Z"></path>
    <path d="M233.7125 138.18Q232.34750000000003 138.18 231.33500000000004 137.5575Q230.32250000000002 136.935 229.7675 135.72750000000002Q229.2125 134.52 229.2125 132.765Q229.2125 130.995 229.7675 129.79500000000002Q230.32250000000002 128.595 231.33500000000004 127.9725Q232.34750000000003 127.35 233.7125 127.35Q235.09250000000003 127.35 236.10500000000002 127.9725Q237.1175 128.595 237.6725 129.79500000000002Q238.22750000000002 130.995 238.22750000000002 132.765Q238.22750000000002 134.52 237.6725 135.72750000000002Q237.1175 136.935 236.10500000000002 137.5575Q235.09250000000003 138.18 233.7125 138.18ZM233.7125 136.665Q234.53750000000002 136.665 235.13750000000002 136.29Q235.7375 135.915 236.0825 135.225Q236.4275 134.535 236.4275 133.59V131.94Q236.4275 130.98 236.0825 130.29Q235.7375 129.6 235.13750000000002 129.23250000000002Q234.53750000000002 128.865 233.7125 128.865Q232.91750000000002 128.865 232.3025 129.23250000000002Q231.68750000000003 129.6 231.35000000000002 130.29Q231.01250000000002 130.98 231.01250000000002 131.94V133.59Q231.01250000000002 134.535 231.35000000000002 135.225Q231.68750000000003 135.915 232.3025 136.29Q232.91750000000002 136.665 233.7125 136.665Z"></path>
    <path d="M249.88250000000002 138.0 246.46250000000003 132.225 245.30750000000003 129.99H245.26250000000002V138.0H243.6425V127.53H245.5475L248.95250000000001 133.305L250.10750000000002 135.54H250.15250000000003V127.53H251.7725V138.0Z"></path>
    <path d="M260.7875 138.18Q259.4825 138.18 258.5525 137.6925Q257.6225 137.205 256.96250000000003 136.41L258.14750000000004 135.315Q258.6875 135.99 259.355 136.335Q260.02250000000004 136.68 260.8775 136.68Q261.8825 136.68 262.39250000000004 136.2225Q262.90250000000003 135.765 262.90250000000003 135.015Q262.90250000000003 134.61 262.75250000000005 134.31Q262.6025 134.01 262.2425 133.815Q261.8825 133.62 261.2825 133.5L260.3525 133.335Q259.33250000000004 133.14 258.65000000000003 132.765Q257.96750000000003 132.39 257.62250000000006 131.7825Q257.27750000000003 131.175 257.27750000000003 130.35Q257.27750000000003 129.42 257.7275 128.745Q258.1775 128.07 259.01 127.71Q259.84250000000003 127.35 260.9525 127.35Q262.1375 127.35 263.0075 127.7625Q263.8775 128.175 264.4775 128.955L263.2925 130.005Q262.8875 129.48 262.3025 129.165Q261.71750000000003 128.85 260.8475 128.85Q259.9475 128.85 259.46000000000004 129.20999999999998Q258.9725 129.57 258.9725 130.26Q258.9725 130.695 259.15250000000003 130.98Q259.33250000000004 131.265 259.70000000000005 131.445Q260.0675 131.625 260.6225 131.73L261.5525 131.925Q262.6025 132.12 263.27750000000003 132.51Q263.9525 132.9 264.275 133.4925Q264.5975 134.085 264.5975 134.925Q264.5975 135.9 264.14750000000004 136.6275Q263.6975 137.355 262.8425 137.76749999999998Q261.9875 138.18 260.7875 138.18Z"></path>
    <path d="M279.9125 138.18Q278.6075 138.18 277.6775 137.6925Q276.7475 137.205 276.08750000000003 136.41L277.27250000000004 135.315Q277.8125 135.99 278.48 136.335Q279.14750000000004 136.68 280.0025 136.68Q281.0075 136.68 281.51750000000004 136.2225Q282.02750000000003 135.765 282.02750000000003 135.015Q282.02750000000003 134.61 281.87750000000005 134.31Q281.7275 134.01 281.3675 133.815Q281.0075 133.62 280.4075 133.5L279.4775 133.335Q278.45750000000004 133.14 277.77500000000003 132.765Q277.09250000000003 132.39 276.74750000000006 131.7825Q276.40250000000003 131.175 276.40250000000003 130.35Q276.40250000000003 129.42 276.8525 128.745Q277.3025 128.07 278.135 127.71Q278.96750000000003 127.35 280.0775 127.35Q281.2625 127.35 282.1325 127.7625Q283.0025 128.175 283.6025 128.955L282.4175 130.005Q282.0125 129.48 281.4275 129.165Q280.84250000000003 128.85 279.9725 128.85Q279.0725 128.85 278.58500000000004 129.20999999999998Q278.0975 129.57 278.0975 130.26Q278.0975 130.695 278.27750000000003 130.98Q278.45750000000004 131.265 278.82500000000005 131.445Q279.1925 131.625 279.7475 131.73L280.6775 131.925Q281.7275 132.12 282.40250000000003 132.51Q283.0775 132.9 283.4 133.4925Q283.7225 134.085 283.7225 134.925Q283.7225 135.9 283.27250000000004 136.6275Q282.8225 137.355 281.9675 137.76749999999998Q281.1125 138.18 279.9125 138.18Z"></path>
    <path d="M295.81250000000006 129.03H292.69250000000005V138.0H290.99750000000006V129.03H287.87750000000005V127.53H295.81250000000006Z"></path>
    <path d="M300.70250000000004 127.53H302.3675V133.98Q302.3675 134.865 302.58500000000004 135.465Q302.8025 136.065 303.2975 136.365Q303.7925 136.665 304.6025 136.665Q305.4275 136.665 305.915 136.365Q306.40250000000003 136.065 306.62750000000005 135.465Q306.8525 134.865 306.8525 133.98V127.53H308.51750000000004V133.71Q308.51750000000004 135.24 308.135 136.23000000000002Q307.7525 137.22 306.89 137.7Q306.02750000000003 138.18 304.58750000000003 138.18Q303.14750000000004 138.18 302.30000000000007 137.7Q301.45250000000004 137.22 301.07750000000004 136.23000000000002Q300.70250000000004 135.24 300.70250000000004 133.71Z"></path>
    <path d="M314.33750000000003 138.0V127.53H318.0425Q319.3775 127.53 320.375 128.10750000000002Q321.3725 128.685 321.92 129.8475Q322.46750000000003 131.01 322.46750000000003 132.765Q322.46750000000003 134.52 321.92 135.6825Q321.3725 136.845 320.375 137.4225Q319.3775 138.0 318.0425 138.0ZM316.0325 136.5H318.0425Q318.8225 136.5 319.41499999999996 136.17000000000002Q320.0075 135.84 320.33000000000004 135.195Q320.65250000000003 134.55 320.65250000000003 133.605V131.925Q320.65250000000003 130.98 320.33000000000004 130.33499999999998Q320.0075 129.69 319.41499999999996 129.36Q318.8225 129.03 318.0425 129.03H316.0325Z"></path>
    <path d="M331.9475 138.0H327.41749999999996V136.62H328.8275V128.91H327.41749999999996V127.53H331.9475V128.91H330.5225V136.62H331.9475Z"></path>
    <path d="M341.41249999999997 138.18Q340.04749999999996 138.18 339.03499999999997 137.5575Q338.0225 136.935 337.4675 135.72750000000002Q336.91249999999997 134.52 336.91249999999997 132.765Q336.91249999999997 130.995 337.4675 129.79500000000002Q338.0225 128.595 339.03499999999997 127.9725Q340.04749999999996 127.35 341.41249999999997 127.35Q342.79249999999996 127.35 343.80499999999995 127.9725Q344.8175 128.595 345.37249999999995 129.79500000000002Q345.92749999999995 130.995 345.92749999999995 132.765Q345.92749999999995 134.52 345.37249999999995 135.72750000000002Q344.8175 136.935 343.80499999999995 137.5575Q342.79249999999996 138.18 341.41249999999997 138.18ZM341.41249999999997 136.665Q342.23749999999995 136.665 342.8375 136.29Q343.4375 135.915 343.7825 135.225Q344.1275 134.535 344.1275 133.59V131.94Q344.1275 130.98 343.7825 130.29Q343.4375 129.6 342.8375 129.23250000000002Q342.23749999999995 128.865 341.41249999999997 128.865Q340.61749999999995 128.865 340.00249999999994 129.23250000000002Q339.3875 129.6 339.04999999999995 130.29Q338.7125 130.98 338.7125 131.94V133.59Q338.7125 134.535 339.04999999999995 135.225Q339.3875 135.915 340.00249999999994 136.29Q340.61749999999995 136.665 341.41249999999997 136.665Z"></path>
  </g>
</svg>